<?xml version="1.0" encoding="UTF-8"?><svg id="Ebene_1" xmlns="http://www.w3.org/2000/svg" viewBox="0 0 1024 1024"><defs><style>.cls-1{fill:#212121;}.cls-2{fill:#f5f1ec;}.cls-3{fill:#cb3d2d;}</style></defs><path class="cls-3" d="M589.36,730.66c.5.95,5.83,8.02,6.65,8.82,3.76,3.64,6.66,4.44,11.73,2.75,12.66-4.23,26.2-33.14,38.78-43.21,17.08-13.67,37.33-15.75,57.99-10.04,21.59,5.97,41.83,23.79,65.03,24.05,8.65.1,27.75-7.81,27.37,9.35-.45,20.28-36.92,14.83-49.55,11.74-20.79-5.1-42.39-22.15-62.84-23.16-34.27-1.7-40.14,52.12-74.48,57.59-47.12,7.51-53.01-64.8-67.19-93.91-13.63-27.97-23.69-3.14-29.87,12.84-10.94,28.26-24.08,99.65-68.19,88.22-32.48-8.42-39.89-71.74-65.74-76.25-15.68-2.74-28.23,12.28-39.72,20.38-30.23,21.3-55.83,26.83-92.33,16.66-8.01-2.23-20.39-4.72-20.05-14.96.66-19.65,21.51-7.8,31.84-5.83,9.83,1.87,20.6,2.81,30.45,1.04,38.2-6.87,59.41-55.12,102.73-40.22,29.17,10.03,34.54,46.3,51.61,67.39,13.31,16.45,20.56,1.62,26.59-11.25,12.84-27.39,20.14-86.92,52.83-96.17,46.61-13.19,51.98,67.07,66.36,94.17Z"/><path class="cls-3" d="M700,552c-.36-.5-1.29,1-1.5,1h-42.5v77h-69.5c-1.21,0-5.25-3.48-4.55-5.45v-330.1c-.51-7.34,6.83-7.83,12.28-9.72,57.03-19.8,115.87-35.08,173.29-53.76,4.45.03,6.71,3.25,6.52,7.48v384.09c.73,1.8-2.26,7.45-3.55,7.45h-69c-.11,0-1.5-1.39-1.5-1.5v-76.5ZM617,318v45h45v-45h-45ZM694,318v45h45v-45h-45ZM617,392v46h45v-46h-45ZM694,392v46h45v-46h-45ZM615.96,467v47h46.04v-47h-46.04ZM694,467v46h45v-46h-45Z"/><rect class="cls-2" x="615.96" y="467" width="46.04" height="47"/><rect class="cls-2" x="617" y="392" width="45" height="46"/><rect class="cls-2" x="694" y="392" width="45" height="46"/><rect class="cls-2" x="694" y="467" width="45" height="46"/><rect class="cls-2" x="617" y="318" width="45" height="45"/><rect class="cls-2" x="694" y="318" width="45" height="45"/><path class="cls-1" d="M511.83,237.24c18.66-.47,35.58,14.06,37.92,32.52,1.25,9.86-.68,19.3-.79,28.7-.66,57.34.6,114.72.04,172.06,6.4,6.29,12.23,11.93,16.86,20.14,35.95,63.79-46.53,126.42-97.75,75.75-28.74-28.44-20.68-70.16,6.88-95.92l-.03-192.03c.24-20.48,15.35-40.67,36.87-41.21ZM510.77,257.19c-6.96.96-14.47,8.05-14.77,15.31l-.06,208.94c-.76,4.8-7.89,7.11-11.43,10.57-26.75,26.09-10.33,72.47,28.01,72.07,31.58-.33,50.73-35.03,35.29-62.38-5.34-9.45-15.15-11.9-18.74-21.26l-.04-208.96c-1.05-8.63-9.52-15.49-18.26-14.28Z"/><path class="cls-2" d="M510.77,257.19c8.74-1.21,17.2,5.66,18.26,14.28l.04,208.96c3.59,9.36,13.41,11.81,18.74,21.26,15.44,27.35-3.71,62.06-35.29,62.38-38.34.4-54.76-45.99-28.01-72.07,3.54-3.46,10.67-5.77,11.43-10.57l.06-208.94c.3-7.26,7.82-14.34,14.77-15.31ZM519,503l.02-167.52c-.52-8.15-12.43-10.3-13.03-1l.08,166.9c-29.49,9.16-15.2,52.7,13.93,43.1,17.85-5.88,20.42-34.47,3.96-40.95-1.67-.66-4.77-.37-4.95-.54Z"/><path class="cls-1" d="M519,503c.18.17,3.28-.12,4.95.54,16.46,6.48,13.89,35.07-3.96,40.95-29.13,9.59-43.42-33.94-13.93-43.1l-.08-166.9c.61-9.3,12.51-7.16,13.03,1l-.02,167.52Z"/><path class="cls-1" d="M438.71,339.31c.24.11,2.77,3.41,3.56,3.9,1.73,92.95.19,186.25.78,279.33.21,3.34-1.51,5.99-4.06,7.94h-204.97l-3.26-3.74c-1.8-102.58-.19-205.56-.81-308.29.7-7.8,3.56-7.76,10.54-7.43l198.22,28.29ZM405,380h-54v54h54v-54ZM320,381h-53v53h53v-53ZM320,460h-53v54h53v-54ZM405,460h-53v54h53v-54ZM320,541h-53v54h53v-54ZM405,541h-53v54h53v-54Z"/><rect class="cls-2" x="351" y="380" width="54" height="54"/><rect class="cls-2" x="267" y="460" width="53" height="54"/><rect class="cls-2" x="352" y="460" width="53" height="54"/><rect class="cls-2" x="352" y="541" width="53" height="54"/><rect class="cls-2" x="267" y="541" width="53" height="54"/><rect class="cls-2" x="267" y="381" width="53" height="53"/></svg>